<?xml version="1.0" standalone="no"?>
<!DOCTYPE svg PUBLIC "-//W3C//DTD SVG 20010904//EN"
 "http://www.w3.org/TR/2001/REC-SVG-20010904/DTD/svg10.dtd">
<svg version="1.0" xmlns="http://www.w3.org/2000/svg"
 width="800.000000pt" height="800.000000pt" viewBox="0 0 800.000000 800.000000"
 preserveAspectRatio="xMidYMid meet">
<metadata>
Created by potrace 1.11, written by Peter Selinger 2001-2013
</metadata>
<g transform="translate(0.000000,800.000000) scale(0.100000,-0.100000)"
fill="#000000" stroke="none">
<path d="M0 3995 l0 -3995 4000 0 4000 0 0 3995 0 3995 -4000 0 -4000 0 0
-3995z m4778 3373 c18 -5 46 -21 62 -35 24 -20 30 -33 30 -64 0 -21 -39 -222
-86 -445 -47 -223 -84 -407 -82 -408 1 -1 39 -15 83 -30 104 -36 266 -113 363
-173 723 -445 1148 -1311 1091 -2217 -7 -99 -12 -197 -13 -215 l-1 -35 363
-77 c200 -42 381 -82 403 -88 48 -15 71 -47 71 -105 2 -94 -40 -178 -95 -191
-15 -4 -178 25 -409 74 -210 45 -388 81 -395 81 -7 0 -27 -46 -44 -102 -213
-691 -736 -1283 -1379 -1560 -317 -137 -644 -193 -984 -168 l-70 5 -96 -455
c-53 -250 -101 -465 -108 -477 -17 -31 -47 -45 -97 -45 -93 -2 -177 40 -190
95 -4 14 33 212 90 482 53 251 93 461 88 465 -4 4 -44 19 -88 35 -412 142
-807 472 -1067 890 -177 284 -299 620 -353 970 -23 148 -31 462 -15 628 7 75
10 140 8 143 -3 3 -196 45 -429 94 -233 49 -434 95 -447 102 -34 18 -45 45
-45 108 1 102 51 180 114 180 24 0 808 -160 861 -176 14 -4 23 13 49 98 120
389 337 751 623 1042 385 391 845 624 1351 686 60 8 172 11 281 8 l180 -4 83
396 c45 217 89 413 97 436 24 68 92 86 202 52z"/>
<path d="M4028 6129 c-310 -33 -530 -209 -694 -554 -66 -139 -130 -328 -189
-565 -43 -172 -136 -583 -132 -586 7 -5 903 -191 906 -188 9 8 399 1880 393
1885 -12 11 -205 17 -284 8z"/>
<path d="M4620 6053 c0 -4 -88 -426 -196 -936 -107 -511 -194 -934 -191 -940
3 -8 189 -51 448 -106 244 -51 453 -95 465 -97 20 -5 23 6 62 203 103 515 132
831 102 1094 -42 363 -238 621 -573 749 -98 37 -117 43 -117 33z"/>
<path d="M2945 4108 c-2 -7 -22 -112 -44 -233 -80 -433 -105 -708 -90 -957 14
-235 54 -393 140 -545 54 -97 196 -242 289 -296 71 -40 197 -93 205 -85 5 5
414 1931 411 1935 -1 1 -195 43 -431 92 -237 50 -440 93 -453 96 -13 3 -24 0
-27 -7z"/>
<path d="M4155 3838 c-3 -13 -93 -439 -200 -948 -107 -509 -197 -935 -200
-947 -5 -23 -4 -23 100 -23 251 0 440 81 625 269 232 235 403 612 560 1231 33
133 60 244 58 245 -4 4 -912 195 -926 195 -6 0 -14 -10 -17 -22z"/>
</g>
</svg>
