<svg xmlns="http://www.w3.org/2000/svg" width="587.453" height="172.019" viewBox="0 0 587.453 172.019"><path fill="#50C878" d="M147.924 99.472c-.393 1.867-1.3 3.326-3.312 2.9l-17.094-3.603c-7.1 26.56-31.814 44.156-55.48 41.118L67.798 160c-.423 2.012-2.124 2.252-3.992 1.858-1.867-.396-3.327-1.302-2.902-3.312l4.24-20.112c-22.88-6.772-38.245-32.817-34.163-60.014l-18.963-3.994c-2.01-.424-2.252-2.125-1.86-3.992.395-1.868 1.302-3.327 3.313-2.903l18.963 3.998c7.303-26.82 31.812-44.158 55.48-41.12l3.905-18.532c.393-1.867 2.095-2.11 3.962-1.715 1.867.395 3.326 1.303 2.933 3.17l-3.906 18.532c22.88 6.773 38.418 32.704 34.164 60.015l17.095 3.604c2.012.423 2.254 2.124 1.86 3.992zm-91.07-22.797l20.4 4.3 8.963-42.522c-20.763-2.576-24.457 14.95-29.362 38.222zm9.742 54.867L75.8 87.87l-20.398-4.3c-4.52 22.154-6.884 41.91 11.194 47.972zm26.516-91.635l-8.963 42.52 21.116 4.454c4.906-23.273 7.596-41.01-12.154-46.973zm10.7 53.868l-21.116-4.45-9.205 43.67c18.413 1.63 25.26-17.33 30.323-39.22z"/><g fill="#444"><path d="M239.766 67.577c3.888 4.13 5.832 9.792 5.832 16.992V139H232.35V86.44c0-5.376-1.008-9.167-3.024-11.376-2.016-2.208-4.993-3.312-8.928-3.312-4.032 0-7.585 1.152-10.656 3.456-3.073 2.304-5.954 5.616-8.64 9.936V139h-13.248V63.113h11.376l1.152 11.23c2.687-4.03 6.023-7.2 10.008-9.503 3.983-2.304 8.375-3.456 13.176-3.456 6.912 0 12.312 2.066 16.2 6.193zM322.71 40.36c4.08 1.537 8.23 4.032 12.456 7.488l-7.488 8.784c-6.05-4.896-12.434-7.344-19.152-7.344-8.258 0-14.904 3.168-19.944 9.504s-7.56 16.513-7.56 30.528c0 13.633 2.496 23.688 7.488 30.168 4.99 6.48 11.614 9.72 19.872 9.72 4.224 0 7.87-.72 10.944-2.16 3.07-1.44 6.43-3.503 10.08-6.19l6.91 8.782c-2.976 3.168-6.89 5.81-11.734 7.92-4.85 2.11-10.393 3.168-16.633 3.168-8.064 0-15.242-1.99-21.53-5.976-6.288-3.982-11.184-9.84-14.687-17.568-3.505-7.727-5.256-17.014-5.256-27.863 0-10.847 1.823-20.135 5.472-27.863 3.646-7.727 8.59-13.56 14.83-17.496 6.24-3.935 13.2-5.903 20.88-5.903 5.953 0 10.968.77 15.05 2.304zM404.79 72.04c5.903 7.106 8.856 16.755 8.856 28.945 0 7.872-1.346 14.81-4.033 20.808-2.688 6-6.576 10.656-11.664 13.968-5.09 3.313-11.138 4.97-18.145 4.97-10.655 0-18.96-3.55-24.91-10.656-5.955-7.104-8.93-16.752-8.93-28.944 0-7.87 1.343-14.808 4.032-20.808 2.686-6 6.574-10.656 11.664-13.97 5.088-3.31 11.183-4.967 18.288-4.967 10.657 0 18.938 3.552 24.842 10.656zm-44.568 29.088c0 19.296 6.527 28.944 19.584 28.944 13.055 0 19.584-9.695 19.584-29.088 0-19.296-6.48-28.944-19.44-28.944-13.153 0-19.728 9.698-19.728 29.088zM494.286 139h-11.664l-1.296-10.512c-2.498 3.84-5.616 6.84-9.36 9-3.743 2.16-7.92 3.24-12.528 3.24-9.024 0-16.056-3.55-21.096-10.656-5.04-7.104-7.56-16.654-7.56-28.656 0-7.776 1.2-14.688 3.6-20.736 2.398-6.048 5.854-10.775 10.368-14.184 4.512-3.406 9.792-5.112 15.84-5.112 7.776 0 14.592 3.12 20.448 9.36V31l13.248 1.584V139zm-21.6-11.59c2.88-1.873 5.664-4.682 8.353-8.425V81.833c-2.498-3.263-5.162-5.735-7.993-7.416-2.833-1.68-6.025-2.52-9.575-2.52-5.857 0-10.394 2.447-13.61 7.344-3.216 4.897-4.822 12.193-4.822 21.89 0 9.79 1.487 17.088 4.464 21.887 2.975 4.802 7.247 7.2 12.816 7.2 4.03 0 7.487-.936 10.366-2.808zM574.35 128.128c1.055 1.49 2.64 2.617 4.752 3.384l-3.025 9.216c-3.938-.48-7.105-1.584-9.504-3.312-2.4-1.728-4.176-4.414-5.328-8.064-5.09 7.585-12.624 11.376-22.607 11.376-7.488 0-13.393-2.11-17.712-6.336-4.32-4.223-6.48-9.742-6.48-16.56 0-8.064 2.903-14.256 8.712-18.576 5.808-4.32 14.04-6.48 24.697-6.48h11.663v-5.615c0-5.374-1.296-9.215-3.888-11.52-2.592-2.304-6.576-3.456-11.952-3.456-5.57 0-12.384 1.346-20.448 4.032l-3.312-9.647c9.407-3.457 18.144-5.186 26.208-5.186 8.928 0 15.6 2.185 20.016 6.552 4.414 4.37 6.624 10.584 6.624 18.648v34.704c0 3.074.525 5.353 1.583 6.84zm-14.833-9.143V101.56h-9.936c-14.017 0-21.023 5.185-21.023 15.553 0 4.514 1.103 7.92 3.312 10.224 2.206 2.304 5.47 3.456 9.79 3.456 7.583 0 13.537-3.936 17.857-11.808z"/></g></svg>